{
    "header": {
      "keySignatures": [
        {
          "key": "Eb",
          "scale": "major",
          "ticks": 0
        },
        {
          "key": "Eb",
          "scale": "major",
          "ticks": 0
        },
        {
          "key": "Eb",
          "scale": "major",
          "ticks": 0
        },
        {
          "key": "Eb",
          "scale": "major",
          "ticks": 0
        }
      ],
      "meta": [],
      "name": "Soprano\u0000",
      "ppq": 480,
      "tempos": [
        {
          "bpm": 120,
          "ticks": 0
        }
      ],
      "timeSignatures": [
        {
          "ticks": 0,
          "timeSignature": [
            4,
            4
          ],
          "measures": 0
        }
      ]
    },
    "tracks": [
      {
        "channel": 0,
        "controlChanges": {
          "6": [
            {
              "number": 6,
              "ticks": 0,
              "time": 0,
              "value": 0.09448818897637795
            }
          ],
          "7": [
            {
              "number": 7,
              "ticks": 0,
              "time": 0,
              "value": 0.7874015748031497
            }
          ],
          "10": [
            {
              "number": 10,
              "ticks": 0,
              "time": 0,
              "value": 0.49606299212598426
            }
          ],
          "91": [
            {
              "number": 91,
              "ticks": 0,
              "time": 0,
              "value": 0
            }
          ],
          "93": [
            {
              "number": 93,
              "ticks": 0,
              "time": 0,
              "value": 0
            }
          ],
          "100": [
            {
              "number": 100,
              "ticks": 0,
              "time": 0,
              "value": 0
            },
            {
              "number": 100,
              "ticks": 0,
              "time": 0,
              "value": 1
            }
          ],
          "101": [
            {
              "number": 101,
              "ticks": 0,
              "time": 0,
              "value": 0
            },
            {
              "number": 101,
              "ticks": 0,
              "time": 0,
              "value": 1
            }
          ],
          "121": [
            {
              "number": 121,
              "ticks": 0,
              "time": 0,
              "value": 0
            }
          ]
        },
        "pitchBends": [],
        "instrument": {
          "family": "piano",
          "number": 0,
          "name": "acoustic grand piano"
        },
        "name": "Soprano\u0000",
        "notes": [
          {
            "duration": 0.4739583333333333,
            "durationTicks": 455,
            "midi": 72,
            "name": "C5",
            "ticks": 0,
            "time": 0,
            "velocity": 0.6299212598425197
          },
          {
            "duration": 0.47395833333333337,
            "durationTicks": 455,
            "midi": 72,
            "name": "C5",
            "ticks": 480,
            "time": 0.5,
            "velocity": 0.6299212598425197
          },
          {
            "duration": 0.47395833333333326,
            "durationTicks": 455,
            "midi": 70,
            "name": "A#4",
            "ticks": 960,
            "time": 1,
            "velocity": 0.6299212598425197
          },
          {
            "duration": 0.47395833333333326,
            "durationTicks": 455,
            "midi": 68,
            "name": "G#4",
            "ticks": 1440,
            "time": 1.5,
            "velocity": 0.6299212598425197
          },
          {
            "duration": 0.7114583333333333,
            "durationTicks": 683,
            "midi": 67,
            "name": "G4",
            "ticks": 1920,
            "time": 2,
            "velocity": 0.6299212598425197
          },
          {
            "duration": 0.23645833333333321,
            "durationTicks": 227,
            "midi": 65,
            "name": "F4",
            "ticks": 2640,
            "time": 2.75,
            "velocity": 0.6299212598425197
          },
          {
            "duration": 0.4739583333333335,
            "durationTicks": 455,
            "midi": 65,
            "name": "F4",
            "ticks": 2880,
            "time": 3,
            "velocity": 0.6299212598425197
          },
          {
            "duration": 0.4739583333333335,
            "durationTicks": 455,
            "midi": 65,
            "name": "F4",
            "ticks": 3360,
            "time": 3.5,
            "velocity": 0.6299212598425197
          },
          {
            "duration": 0.7114583333333337,
            "durationTicks": 683,
            "midi": 68,
            "name": "G#4",
            "ticks": 3840,
            "time": 4,
            "velocity": 0.6299212598425197
          },
          {
            "duration": 0.23645833333333321,
            "durationTicks": 227,
            "midi": 70,
            "name": "A#4",
            "ticks": 4560,
            "time": 4.75,
            "velocity": 0.6299212598425197
          },
          {
            "duration": 0.47395833333333304,
            "durationTicks": 455,
            "midi": 72,
            "name": "C5",
            "ticks": 4800,
            "time": 5,
            "velocity": 0.6299212598425197
          },
          {
            "duration": 0.47395833333333304,
            "durationTicks": 455,
            "midi": 72,
            "name": "C5",
            "ticks": 5280,
            "time": 5.5,
            "velocity": 0.6299212598425197
          },
          {
            "duration": 0.7114583333333337,
            "durationTicks": 683,
            "midi": 70,
            "name": "A#4",
            "ticks": 5760,
            "time": 6,
            "velocity": 0.6299212598425197
          },
          {
            "duration": 0.23645833333333321,
            "durationTicks": 227,
            "midi": 68,
            "name": "G#4",
            "ticks": 6480,
            "time": 6.75,
            "velocity": 0.6299212598425197
          },
          {
            "duration": 0.9489583333333336,
            "durationTicks": 911,
            "midi": 68,
            "name": "G#4",
            "ticks": 6720,
            "time": 7,
            "velocity": 0.6299212598425197
          },
          {
            "duration": 0.4739583333333339,
            "durationTicks": 455,
            "midi": 68,
            "name": "G#4",
            "ticks": 7680,
            "time": 8,
            "velocity": 0.6299212598425197
          },
          {
            "duration": 0.4739583333333339,
            "durationTicks": 455,
            "midi": 70,
            "name": "A#4",
            "ticks": 8160,
            "time": 8.5,
            "velocity": 0.6299212598425197
          },
          {
            "duration": 0.4739583333333339,
            "durationTicks": 455,
            "midi": 70,
            "name": "A#4",
            "ticks": 8640,
            "time": 9,
            "velocity": 0.6299212598425197
          },
          {
            "duration": 0.4739583333333339,
            "durationTicks": 455,
            "midi": 68,
            "name": "G#4",
            "ticks": 9120,
            "time": 9.5,
            "velocity": 0.6299212598425197
          },
          {
            "duration": 0.7114583333333329,
            "durationTicks": 683,
            "midi": 67,
            "name": "G4",
            "ticks": 9600,
            "time": 10,
            "velocity": 0.6299212598425197
          },
          {
            "duration": 0.23645833333333321,
            "durationTicks": 227,
            "midi": 65,
            "name": "F4",
            "ticks": 10320,
            "time": 10.75,
            "velocity": 0.6299212598425197
          },
          {
            "duration": 0.9489583333333336,
            "durationTicks": 911,
            "midi": 65,
            "name": "F4",
            "ticks": 10560,
            "time": 11,
            "velocity": 0.6299212598425197
          },
          {
            "duration": 0.4739583333333339,
            "durationTicks": 455,
            "midi": 72,
            "name": "C5",
            "ticks": 11520,
            "time": 12,
            "velocity": 0.6299212598425197
          },
          {
            "duration": 0.4739583333333339,
            "durationTicks": 455,
            "midi": 72,
            "name": "C5",
            "ticks": 12000,
            "time": 12.5,
            "velocity": 0.6299212598425197
          },
          {
            "duration": 0.4739583333333339,
            "durationTicks": 455,
            "midi": 73,
            "name": "C#5",
            "ticks": 12480,
            "time": 13,
            "velocity": 0.6299212598425197
          },
          {
            "duration": 0.4739583333333339,
            "durationTicks": 455,
            "midi": 73,
            "name": "C#5",
            "ticks": 12960,
            "time": 13.5,
            "velocity": 0.6299212598425197
          },
          {
            "duration": 0.4739583333333339,
            "durationTicks": 455,
            "midi": 70,
            "name": "A#4",
            "ticks": 13440,
            "time": 14,
            "velocity": 0.6299212598425197
          },
          {
            "duration": 0.4739583333333339,
            "durationTicks": 455,
            "midi": 70,
            "name": "A#4",
            "ticks": 13920,
            "time": 14.5,
            "velocity": 0.6299212598425197
          },
          {
            "duration": 0.4739583333333339,
            "durationTicks": 455,
            "midi": 72,
            "name": "C5",
            "ticks": 14400,
            "time": 15,
            "velocity": 0.6299212598425197
          },
          {
            "duration": 0.4739583333333339,
            "durationTicks": 455,
            "midi": 72,
            "name": "C5",
            "ticks": 14880,
            "time": 15.5,
            "velocity": 0.6299212598425197
          },
          {
            "duration": 0.47395833333333215,
            "durationTicks": 455,
            "midi": 68,
            "name": "G#4",
            "ticks": 15360,
            "time": 16,
            "velocity": 0.6299212598425197
          },
          {
            "duration": 0.47395833333333215,
            "durationTicks": 455,
            "midi": 68,
            "name": "G#4",
            "ticks": 15840,
            "time": 16.5,
            "velocity": 0.6299212598425197
          },
          {
            "duration": 0.47395833333333215,
            "durationTicks": 455,
            "midi": 73,
            "name": "C#5",
            "ticks": 16320,
            "time": 17,
            "velocity": 0.6299212598425197
          },
          {
            "duration": 0.47395833333333215,
            "durationTicks": 455,
            "midi": 73,
            "name": "C#5",
            "ticks": 16800,
            "time": 17.5,
            "velocity": 0.6299212598425197
          },
          {
            "duration": 0.47395833333333215,
            "durationTicks": 455,
            "midi": 72,
            "name": "C5",
            "ticks": 17280,
            "time": 18,
            "velocity": 0.6299212598425197
          },
          {
            "duration": 0.47395833333333215,
            "durationTicks": 455,
            "midi": 72,
            "name": "C5",
            "ticks": 17760,
            "time": 18.5,
            "velocity": 0.6299212598425197
          },
          {
            "duration": 0.9489583333333336,
            "durationTicks": 911,
            "midi": 70,
            "name": "A#4",
            "ticks": 18240,
            "time": 19,
            "velocity": 0.6299212598425197
          },
          {
            "duration": 0.47395833333333215,
            "durationTicks": 455,
            "midi": 67,
            "name": "G4",
            "ticks": 19200,
            "time": 20,
            "velocity": 0.6299212598425197
          },
          {
            "duration": 0.47395833333333215,
            "durationTicks": 455,
            "midi": 68,
            "name": "G#4",
            "ticks": 19680,
            "time": 20.5,
            "velocity": 0.6299212598425197
          },
          {
            "duration": 0.47395833333333215,
            "durationTicks": 455,
            "midi": 70,
            "name": "A#4",
            "ticks": 20160,
            "time": 21,
            "velocity": 0.6299212598425197
          },
          {
            "duration": 0.47395833333333215,
            "durationTicks": 455,
            "midi": 68,
            "name": "G#4",
            "ticks": 20640,
            "time": 21.5,
            "velocity": 0.6299212598425197
          },
          {
            "duration": 0.47395833333333215,
            "durationTicks": 455,
            "midi": 67,
            "name": "G4",
            "ticks": 21120,
            "time": 22,
            "velocity": 0.6299212598425197
          },
          {
            "duration": 0.47395833333333215,
            "durationTicks": 455,
            "midi": 67,
            "name": "G4",
            "ticks": 21600,
            "time": 22.5,
            "velocity": 0.6299212598425197
          },
          {
            "duration": 0.9489583333333336,
            "durationTicks": 911,
            "midi": 65,
            "name": "F4",
            "ticks": 22080,
            "time": 23,
            "velocity": 0.6299212598425197
          },
          {
            "duration": 0.47395833333333215,
            "durationTicks": 455,
            "midi": 77,
            "name": "F5",
            "ticks": 23040,
            "time": 24,
            "velocity": 0.6299212598425197
          },
          {
            "duration": 0.47395833333333215,
            "durationTicks": 455,
            "midi": 77,
            "name": "F5",
            "ticks": 23520,
            "time": 24.5,
            "velocity": 0.6299212598425197
          },
          {
            "duration": 0.47395833333333215,
            "durationTicks": 455,
            "midi": 75,
            "name": "D#5",
            "ticks": 24000,
            "time": 25,
            "velocity": 0.6299212598425197
          },
          {
            "duration": 0.47395833333333215,
            "durationTicks": 455,
            "midi": 75,
            "name": "D#5",
            "ticks": 24480,
            "time": 25.5,
            "velocity": 0.6299212598425197
          },
          {
            "duration": 0.47395833333333215,
            "durationTicks": 455,
            "midi": 74,
            "name": "D5",
            "ticks": 24960,
            "time": 26,
            "velocity": 0.6299212598425197
          },
          {
            "duration": 0.47395833333333215,
            "durationTicks": 455,
            "midi": 74,
            "name": "D5",
            "ticks": 25440,
            "time": 26.5,
            "velocity": 0.6299212598425197
          },
          {
            "duration": 0.47395833333333215,
            "durationTicks": 455,
            "midi": 72,
            "name": "C5",
            "ticks": 25920,
            "time": 27,
            "velocity": 0.6299212598425197
          },
          {
            "duration": 0.47395833333333215,
            "durationTicks": 455,
            "midi": 72,
            "name": "C5",
            "ticks": 26400,
            "time": 27.5,
            "velocity": 0.6299212598425197
          },
          {
            "duration": 0.47395833333333215,
            "durationTicks": 455,
            "midi": 72,
            "name": "C5",
            "ticks": 26880,
            "time": 28,
            "velocity": 0.6299212598425197
          },
          {
            "duration": 0.47395833333333215,
            "durationTicks": 455,
            "midi": 72,
            "name": "C5",
            "ticks": 27360,
            "time": 28.5,
            "velocity": 0.6299212598425197
          },
          {
            "duration": 0.47395833333333215,
            "durationTicks": 455,
            "midi": 73,
            "name": "C#5",
            "ticks": 27840,
            "time": 29,
            "velocity": 0.6299212598425197
          },
          {
            "duration": 0.47395833333333215,
            "durationTicks": 455,
            "midi": 72,
            "name": "C5",
            "ticks": 28320,
            "time": 29.5,
            "velocity": 0.6299212598425197
          },
          {
            "duration": 0.7114583333333329,
            "durationTicks": 683,
            "midi": 70,
            "name": "A#4",
            "ticks": 28800,
            "time": 30,
            "velocity": 0.6299212598425197
          },
          {
            "duration": 0.236458333333335,
            "durationTicks": 227,
            "midi": 68,
            "name": "G#4",
            "ticks": 29520,
            "time": 30.75,
            "velocity": 0.6299212598425197
          },
          {
            "duration": 0.47395833333333215,
            "durationTicks": 455,
            "midi": 68,
            "name": "G#4",
            "ticks": 29760,
            "time": 31,
            "velocity": 0.6299212598425197
          },
          {
            "duration": 0.47395833333333215,
            "durationTicks": 455,
            "midi": 68,
            "name": "G#4",
            "ticks": 30240,
            "time": 31.5,
            "velocity": 0.6299212598425197
          },
          {
            "duration": 0.4739583333333357,
            "durationTicks": 455,
            "midi": 63,
            "name": "D#4",
            "ticks": 30720,
            "time": 32,
            "velocity": 0.6299212598425197
          },
          {
            "duration": 0.4739583333333357,
            "durationTicks": 455,
            "midi": 68,
            "name": "G#4",
            "ticks": 31200,
            "time": 32.5,
            "velocity": 0.6299212598425197
          },
          {
            "duration": 0.4739583333333357,
            "durationTicks": 455,
            "midi": 73,
            "name": "C#5",
            "ticks": 31680,
            "time": 33,
            "velocity": 0.6299212598425197
          },
          {
            "duration": 0.4739583333333357,
            "durationTicks": 455,
            "midi": 73,
            "name": "C#5",
            "ticks": 32160,
            "time": 33.5,
            "velocity": 0.6299212598425197
          },
          {
            "duration": 0.4739583333333357,
            "durationTicks": 455,
            "midi": 70,
            "name": "A#4",
            "ticks": 32640,
            "time": 34,
            "velocity": 0.6299212598425197
          },
          {
            "duration": 0.4739583333333357,
            "durationTicks": 455,
            "midi": 70,
            "name": "A#4",
            "ticks": 33120,
            "time": 34.5,
            "velocity": 0.6299212598425197
          },
          {
            "duration": 0.4739583333333357,
            "durationTicks": 455,
            "midi": 75,
            "name": "D#5",
            "ticks": 33600,
            "time": 35,
            "velocity": 0.6299212598425197
          },
          {
            "duration": 0.4739583333333357,
            "durationTicks": 455,
            "midi": 75,
            "name": "D#5",
            "ticks": 34080,
            "time": 35.5,
            "velocity": 0.6299212598425197
          },
          {
            "duration": 0.4739583333333357,
            "durationTicks": 455,
            "midi": 72,
            "name": "C5",
            "ticks": 34560,
            "time": 36,
            "velocity": 0.6299212598425197
          },
          {
            "duration": 0.4739583333333357,
            "durationTicks": 455,
            "midi": 72,
            "name": "C5",
            "ticks": 35040,
            "time": 36.5,
            "velocity": 0.6299212598425197
          },
          {
            "duration": 0.4739583333333357,
            "durationTicks": 455,
            "midi": 77,
            "name": "F5",
            "ticks": 35520,
            "time": 37,
            "velocity": 0.6299212598425197
          },
          {
            "duration": 0.4739583333333357,
            "durationTicks": 455,
            "midi": 77,
            "name": "F5",
            "ticks": 36000,
            "time": 37.5,
            "velocity": 0.6299212598425197
          },
          {
            "duration": 0.4739583333333357,
            "durationTicks": 455,
            "midi": 76,
            "name": "E5",
            "ticks": 36480,
            "time": 38,
            "velocity": 0.6299212598425197
          },
          {
            "duration": 0.4739583333333357,
            "durationTicks": 455,
            "midi": 76,
            "name": "E5",
            "ticks": 36960,
            "time": 38.5,
            "velocity": 0.6299212598425197
          },
          {
            "duration": 0.4739583333333357,
            "durationTicks": 455,
            "midi": 77,
            "name": "F5",
            "ticks": 37440,
            "time": 39,
            "velocity": 0.6299212598425197
          },
          {
            "duration": 0.4739583333333357,
            "durationTicks": 455,
            "midi": 77,
            "name": "F5",
            "ticks": 37920,
            "time": 39.5,
            "velocity": 0.6299212598425197
          }
        ],
        "endOfTrackTicks": 38376
      },
      {
        "channel": 1,
        "controlChanges": {
          "6": [
            {
              "number": 6,
              "ticks": 0,
              "time": 0,
              "value": 0.09448818897637795
            }
          ],
          "7": [
            {
              "number": 7,
              "ticks": 0,
              "time": 0,
              "value": 0.7874015748031497
            }
          ],
          "10": [
            {
              "number": 10,
              "ticks": 0,
              "time": 0,
              "value": 0.49606299212598426
            }
          ],
          "91": [
            {
              "number": 91,
              "ticks": 0,
              "time": 0,
              "value": 0
            }
          ],
          "93": [
            {
              "number": 93,
              "ticks": 0,
              "time": 0,
              "value": 0
            }
          ],
          "100": [
            {
              "number": 100,
              "ticks": 0,
              "time": 0,
              "value": 0
            },
            {
              "number": 100,
              "ticks": 0,
              "time": 0,
              "value": 1
            }
          ],
          "101": [
            {
              "number": 101,
              "ticks": 0,
              "time": 0,
              "value": 0
            },
            {
              "number": 101,
              "ticks": 0,
              "time": 0,
              "value": 1
            }
          ],
          "121": [
            {
              "number": 121,
              "ticks": 0,
              "time": 0,
              "value": 0
            }
          ]
        },
        "pitchBends": [],
        "instrument": {
          "family": "piano",
          "number": 0,
          "name": "acoustic grand piano"
        },
        "name": "Alto\u0000",
        "notes": [
          {
            "duration": 0.4739583333333333,
            "durationTicks": 455,
            "midi": 65,
            "name": "F4",
            "ticks": 0,
            "time": 0,
            "velocity": 0.6299212598425197
          },
          {
            "duration": 0.47395833333333337,
            "durationTicks": 455,
            "midi": 65,
            "name": "F4",
            "ticks": 480,
            "time": 0.5,
            "velocity": 0.6299212598425197
          },
          {
            "duration": 0.23645833333333344,
            "durationTicks": 227,
            "midi": 65,
            "name": "F4",
            "ticks": 960,
            "time": 1,
            "velocity": 0.6299212598425197
          },
          {
            "duration": 0.23645833333333344,
            "durationTicks": 227,
            "midi": 64,
            "name": "E4",
            "ticks": 1200,
            "time": 1.25,
            "velocity": 0.6299212598425197
          },
          {
            "duration": 0.47395833333333326,
            "durationTicks": 455,
            "midi": 65,
            "name": "F4",
            "ticks": 1440,
            "time": 1.5,
            "velocity": 0.6299212598425197
          },
          {
            "duration": 0.23645833333333321,
            "durationTicks": 227,
            "midi": 65,
            "name": "F4",
            "ticks": 1920,
            "time": 2,
            "velocity": 0.6299212598425197
          },
          {
            "duration": 0.23645833333333321,
            "durationTicks": 227,
            "midi": 67,
            "name": "G4",
            "ticks": 2160,
            "time": 2.25,
            "velocity": 0.6299212598425197
          },
          {
            "duration": 0.4739583333333335,
            "durationTicks": 455,
            "midi": 64,
            "name": "E4",
            "ticks": 2400,
            "time": 2.5,
            "velocity": 0.6299212598425197
          },
          {
            "duration": 0.4739583333333335,
            "durationTicks": 455,
            "midi": 65,
            "name": "F4",
            "ticks": 2880,
            "time": 3,
            "velocity": 0.6299212598425197
          },
          {
            "duration": 0.4739583333333335,
            "durationTicks": 455,
            "midi": 60,
            "name": "C4",
            "ticks": 3360,
            "time": 3.5,
            "velocity": 0.6299212598425197
          },
          {
            "duration": 0.7114583333333337,
            "durationTicks": 683,
            "midi": 65,
            "name": "F4",
            "ticks": 3840,
            "time": 4,
            "velocity": 0.6299212598425197
          },
          {
            "duration": 0.23645833333333321,
            "durationTicks": 227,
            "midi": 67,
            "name": "G4",
            "ticks": 4560,
            "time": 4.75,
            "velocity": 0.6299212598425197
          },
          {
            "duration": 0.47395833333333304,
            "durationTicks": 455,
            "midi": 68,
            "name": "G#4",
            "ticks": 4800,
            "time": 5,
            "velocity": 0.6299212598425197
          },
          {
            "duration": 0.47395833333333304,
            "durationTicks": 455,
            "midi": 68,
            "name": "G#4",
            "ticks": 5280,
            "time": 5.5,
            "velocity": 0.6299212598425197
          },
          {
            "duration": 0.23645833333333321,
            "durationTicks": 227,
            "midi": 68,
            "name": "G#4",
            "ticks": 5760,
            "time": 6,
            "velocity": 0.6299212598425197
          },
          {
            "duration": 0.23645833333333321,
            "durationTicks": 227,
            "midi": 65,
            "name": "F4",
            "ticks": 6000,
            "time": 6.25,
            "velocity": 0.6299212598425197
          },
          {
            "duration": 0.47395833333333304,
            "durationTicks": 455,
            "midi": 67,
            "name": "G4",
            "ticks": 6240,
            "time": 6.5,
            "velocity": 0.6299212598425197
          },
          {
            "duration": 0.9489583333333336,
            "durationTicks": 911,
            "midi": 63,
            "name": "D#4",
            "ticks": 6720,
            "time": 7,
            "velocity": 0.6299212598425197
          },
          {
            "duration": 0.4739583333333339,
            "durationTicks": 455,
            "midi": 65,
            "name": "F4",
            "ticks": 7680,
            "time": 8,
            "velocity": 0.6299212598425197
          },
          {
            "duration": 0.4739583333333339,
            "durationTicks": 455,
            "midi": 67,
            "name": "G4",
            "ticks": 8160,
            "time": 8.5,
            "velocity": 0.6299212598425197
          },
          {
            "duration": 0.4739583333333339,
            "durationTicks": 455,
            "midi": 64,
            "name": "E4",
            "ticks": 8640,
            "time": 9,
            "velocity": 0.6299212598425197
          },
          {
            "duration": 0.4739583333333339,
            "durationTicks": 455,
            "midi": 65,
            "name": "F4",
            "ticks": 9120,
            "time": 9.5,
            "velocity": 0.6299212598425197
          },
          {
            "duration": 0.4739583333333339,
            "durationTicks": 455,
            "midi": 65,
            "name": "F4",
            "ticks": 9600,
            "time": 10,
            "velocity": 0.6299212598425197
          },
          {
            "duration": 0.4739583333333339,
            "durationTicks": 455,
            "midi": 64,
            "name": "E4",
            "ticks": 10080,
            "time": 10.5,
            "velocity": 0.6299212598425197
          },
          {
            "duration": 0.9489583333333336,
            "durationTicks": 911,
            "midi": 60,
            "name": "C4",
            "ticks": 10560,
            "time": 11,
            "velocity": 0.6299212598425197
          },
          {
            "duration": 0.4739583333333339,
            "durationTicks": 455,
            "midi": 65,
            "name": "F4",
            "ticks": 11520,
            "time": 12,
            "velocity": 0.6299212598425197
          },
          {
            "duration": 0.4739583333333339,
            "durationTicks": 455,
            "midi": 65,
            "name": "F4",
            "ticks": 12000,
            "time": 12.5,
            "velocity": 0.6299212598425197
          },
          {
            "duration": 0.4739583333333339,
            "durationTicks": 455,
            "midi": 65,
            "name": "F4",
            "ticks": 12480,
            "time": 13,
            "velocity": 0.6299212598425197
          },
          {
            "duration": 0.4739583333333339,
            "durationTicks": 455,
            "midi": 65,
            "name": "F4",
            "ticks": 12960,
            "time": 13.5,
            "velocity": 0.6299212598425197
          },
          {
            "duration": 0.23645833333333321,
            "durationTicks": 227,
            "midi": 67,
            "name": "G4",
            "ticks": 13440,
            "time": 14,
            "velocity": 0.6299212598425197
          },
          {
            "duration": 0.23645833333333321,
            "durationTicks": 227,
            "midi": 68,
            "name": "G#4",
            "ticks": 13680,
            "time": 14.25,
            "velocity": 0.6299212598425197
          },
          {
            "duration": 0.23645833333333321,
            "durationTicks": 227,
            "midi": 70,
            "name": "A#4",
            "ticks": 13920,
            "time": 14.5,
            "velocity": 0.6299212598425197
          },
          {
            "duration": 0.23645833333333321,
            "durationTicks": 227,
            "midi": 67,
            "name": "G4",
            "ticks": 14160,
            "time": 14.75,
            "velocity": 0.6299212598425197
          },
          {
            "duration": 0.4739583333333339,
            "durationTicks": 455,
            "midi": 68,
            "name": "G#4",
            "ticks": 14400,
            "time": 15,
            "velocity": 0.6299212598425197
          },
          {
            "duration": 0.4739583333333339,
            "durationTicks": 455,
            "midi": 68,
            "name": "G#4",
            "ticks": 14880,
            "time": 15.5,
            "velocity": 0.6299212598425197
          },
          {
            "duration": 0.47395833333333215,
            "durationTicks": 455,
            "midi": 65,
            "name": "F4",
            "ticks": 15360,
            "time": 16,
            "velocity": 0.6299212598425197
          },
          {
            "duration": 0.47395833333333215,
            "durationTicks": 455,
            "midi": 65,
            "name": "F4",
            "ticks": 15840,
            "time": 16.5,
            "velocity": 0.6299212598425197
          },
          {
            "duration": 0.47395833333333215,
            "durationTicks": 455,
            "midi": 70,
            "name": "A#4",
            "ticks": 16320,
            "time": 17,
            "velocity": 0.6299212598425197
          },
          {
            "duration": 0.47395833333333215,
            "durationTicks": 455,
            "midi": 70,
            "name": "A#4",
            "ticks": 16800,
            "time": 17.5,
            "velocity": 0.6299212598425197
          },
          {
            "duration": 0.47395833333333215,
            "durationTicks": 455,
            "midi": 70,
            "name": "A#4",
            "ticks": 17280,
            "time": 18,
            "velocity": 0.6299212598425197
          },
          {
            "duration": 0.47395833333333215,
            "durationTicks": 455,
            "midi": 69,
            "name": "A4",
            "ticks": 17760,
            "time": 18.5,
            "velocity": 0.6299212598425197
          },
          {
            "duration": 0.9489583333333336,
            "durationTicks": 911,
            "midi": 65,
            "name": "F4",
            "ticks": 18240,
            "time": 19,
            "velocity": 0.6299212598425197
          },
          {
            "duration": 0.47395833333333215,
            "durationTicks": 455,
            "midi": 64,
            "name": "E4",
            "ticks": 19200,
            "time": 20,
            "velocity": 0.6299212598425197
          },
          {
            "duration": 0.47395833333333215,
            "durationTicks": 455,
            "midi": 65,
            "name": "F4",
            "ticks": 19680,
            "time": 20.5,
            "velocity": 0.6299212598425197
          },
          {
            "duration": 0.236458333333335,
            "durationTicks": 227,
            "midi": 65,
            "name": "F4",
            "ticks": 20160,
            "time": 21,
            "velocity": 0.6299212598425197
          },
          {
            "duration": 0.236458333333335,
            "durationTicks": 227,
            "midi": 64,
            "name": "E4",
            "ticks": 20400,
            "time": 21.25,
            "velocity": 0.6299212598425197
          },
          {
            "duration": 0.47395833333333215,
            "durationTicks": 455,
            "midi": 65,
            "name": "F4",
            "ticks": 20640,
            "time": 21.5,
            "velocity": 0.6299212598425197
          },
          {
            "duration": 0.47395833333333215,
            "durationTicks": 455,
            "midi": 65,
            "name": "F4",
            "ticks": 21120,
            "time": 22,
            "velocity": 0.6299212598425197
          },
          {
            "duration": 0.47395833333333215,
            "durationTicks": 455,
            "midi": 64,
            "name": "E4",
            "ticks": 21600,
            "time": 22.5,
            "velocity": 0.6299212598425197
          },
          {
            "duration": 0.9489583333333336,
            "durationTicks": 911,
            "midi": 60,
            "name": "C4",
            "ticks": 22080,
            "time": 23,
            "velocity": 0.6299212598425197
          },
          {
            "duration": 0.47395833333333215,
            "durationTicks": 455,
            "midi": 68,
            "name": "G#4",
            "ticks": 23040,
            "time": 24,
            "velocity": 0.6299212598425197
          },
          {
            "duration": 0.47395833333333215,
            "durationTicks": 455,
            "midi": 68,
            "name": "G#4",
            "ticks": 23520,
            "time": 24.5,
            "velocity": 0.6299212598425197
          },
          {
            "duration": 0.47395833333333215,
            "durationTicks": 455,
            "midi": 67,
            "name": "G4",
            "ticks": 24000,
            "time": 25,
            "velocity": 0.6299212598425197
          },
          {
            "duration": 0.47395833333333215,
            "durationTicks": 455,
            "midi": 67,
            "name": "G4",
            "ticks": 24480,
            "time": 25.5,
            "velocity": 0.6299212598425197
          },
          {
            "duration": 0.236458333333335,
            "durationTicks": 227,
            "midi": 67,
            "name": "G4",
            "ticks": 24960,
            "time": 26,
            "velocity": 0.6299212598425197
          },
          {
            "duration": 0.236458333333335,
            "durationTicks": 227,
            "midi": 68,
            "name": "G#4",
            "ticks": 25200,
            "time": 26.25,
            "velocity": 0.6299212598425197
          },
          {
            "duration": 0.236458333333335,
            "durationTicks": 227,
            "midi": 67,
            "name": "G4",
            "ticks": 25440,
            "time": 26.5,
            "velocity": 0.6299212598425197
          },
          {
            "duration": 0.236458333333335,
            "durationTicks": 227,
            "midi": 65,
            "name": "F4",
            "ticks": 25680,
            "time": 26.75,
            "velocity": 0.6299212598425197
          },
          {
            "duration": 0.47395833333333215,
            "durationTicks": 455,
            "midi": 64,
            "name": "E4",
            "ticks": 25920,
            "time": 27,
            "velocity": 0.6299212598425197
          },
          {
            "duration": 0.47395833333333215,
            "durationTicks": 455,
            "midi": 64,
            "name": "E4",
            "ticks": 26400,
            "time": 27.5,
            "velocity": 0.6299212598425197
          },
          {
            "duration": 0.47395833333333215,
            "durationTicks": 455,
            "midi": 65,
            "name": "F4",
            "ticks": 26880,
            "time": 28,
            "velocity": 0.6299212598425197
          },
          {
            "duration": 0.47395833333333215,
            "durationTicks": 455,
            "midi": 65,
            "name": "F4",
            "ticks": 27360,
            "time": 28.5,
            "velocity": 0.6299212598425197
          },
          {
            "duration": 0.236458333333335,
            "durationTicks": 227,
            "midi": 65,
            "name": "F4",
            "ticks": 27840,
            "time": 29,
            "velocity": 0.6299212598425197
          },
          {
            "duration": 0.236458333333335,
            "durationTicks": 227,
            "midi": 67,
            "name": "G4",
            "ticks": 28080,
            "time": 29.25,
            "velocity": 0.6299212598425197
          },
          {
            "duration": 0.47395833333333215,
            "durationTicks": 455,
            "midi": 68,
            "name": "G#4",
            "ticks": 28320,
            "time": 29.5,
            "velocity": 0.6299212598425197
          },
          {
            "duration": 0.236458333333335,
            "durationTicks": 227,
            "midi": 68,
            "name": "G#4",
            "ticks": 28800,
            "time": 30,
            "velocity": 0.6299212598425197
          },
          {
            "duration": 0.236458333333335,
            "durationTicks": 227,
            "midi": 65,
            "name": "F4",
            "ticks": 29040,
            "time": 30.25,
            "velocity": 0.6299212598425197
          },
          {
            "duration": 0.47395833333333215,
            "durationTicks": 455,
            "midi": 67,
            "name": "G4",
            "ticks": 29280,
            "time": 30.5,
            "velocity": 0.6299212598425197
          },
          {
            "duration": 0.47395833333333215,
            "durationTicks": 455,
            "midi": 63,
            "name": "D#4",
            "ticks": 29760,
            "time": 31,
            "velocity": 0.6299212598425197
          },
          {
            "duration": 0.47395833333333215,
            "durationTicks": 455,
            "midi": 63,
            "name": "D#4",
            "ticks": 30240,
            "time": 31.5,
            "velocity": 0.6299212598425197
          },
          {
            "duration": 0.4739583333333357,
            "durationTicks": 455,
            "midi": 65,
            "name": "F4",
            "ticks": 30720,
            "time": 32,
            "velocity": 0.6299212598425197
          },
          {
            "duration": 0.4739583333333357,
            "durationTicks": 455,
            "midi": 65,
            "name": "F4",
            "ticks": 31200,
            "time": 32.5,
            "velocity": 0.6299212598425197
          },
          {
            "duration": 0.4739583333333357,
            "durationTicks": 455,
            "midi": 70,
            "name": "A#4",
            "ticks": 31680,
            "time": 33,
            "velocity": 0.6299212598425197
          },
          {
            "duration": 0.4739583333333357,
            "durationTicks": 455,
            "midi": 70,
            "name": "A#4",
            "ticks": 32160,
            "time": 33.5,
            "velocity": 0.6299212598425197
          },
          {
            "duration": 0.4739583333333357,
            "durationTicks": 455,
            "midi": 67,
            "name": "G4",
            "ticks": 32640,
            "time": 34,
            "velocity": 0.6299212598425197
          },
          {
            "duration": 0.4739583333333357,
            "durationTicks": 455,
            "midi": 67,
            "name": "G4",
            "ticks": 33120,
            "time": 34.5,
            "velocity": 0.6299212598425197
          },
          {
            "duration": 0.4739583333333357,
            "durationTicks": 455,
            "midi": 72,
            "name": "C5",
            "ticks": 33600,
            "time": 35,
            "velocity": 0.6299212598425197
          },
          {
            "duration": 0.4739583333333357,
            "durationTicks": 455,
            "midi": 72,
            "name": "C5",
            "ticks": 34080,
            "time": 35.5,
            "velocity": 0.6299212598425197
          },
          {
            "duration": 0.23645833333333144,
            "durationTicks": 227,
            "midi": 68,
            "name": "G#4",
            "ticks": 34560,
            "time": 36,
            "velocity": 0.6299212598425197
          },
          {
            "duration": 0.23645833333333144,
            "durationTicks": 227,
            "midi": 67,
            "name": "G4",
            "ticks": 34800,
            "time": 36.25,
            "velocity": 0.6299212598425197
          },
          {
            "duration": 0.23645833333333144,
            "durationTicks": 227,
            "midi": 68,
            "name": "G#4",
            "ticks": 35040,
            "time": 36.5,
            "velocity": 0.6299212598425197
          },
          {
            "duration": 0.23645833333333144,
            "durationTicks": 227,
            "midi": 70,
            "name": "A#4",
            "ticks": 35280,
            "time": 36.75,
            "velocity": 0.6299212598425197
          },
          {
            "duration": 0.4739583333333357,
            "durationTicks": 455,
            "midi": 72,
            "name": "C5",
            "ticks": 35520,
            "time": 37,
            "velocity": 0.6299212598425197
          },
          {
            "duration": 0.23645833333333144,
            "durationTicks": 227,
            "midi": 70,
            "name": "A#4",
            "ticks": 36000,
            "time": 37.5,
            "velocity": 0.6299212598425197
          },
          {
            "duration": 0.23645833333333144,
            "durationTicks": 227,
            "midi": 68,
            "name": "G#4",
            "ticks": 36240,
            "time": 37.75,
            "velocity": 0.6299212598425197
          },
          {
            "duration": 0.4739583333333357,
            "durationTicks": 455,
            "midi": 67,
            "name": "G4",
            "ticks": 36480,
            "time": 38,
            "velocity": 0.6299212598425197
          },
          {
            "duration": 0.4739583333333357,
            "durationTicks": 455,
            "midi": 67,
            "name": "G4",
            "ticks": 36960,
            "time": 38.5,
            "velocity": 0.6299212598425197
          },
          {
            "duration": 0.4739583333333357,
            "durationTicks": 455,
            "midi": 69,
            "name": "A4",
            "ticks": 37440,
            "time": 39,
            "velocity": 0.6299212598425197
          },
          {
            "duration": 0.4739583333333357,
            "durationTicks": 455,
            "midi": 69,
            "name": "A4",
            "ticks": 37920,
            "time": 39.5,
            "velocity": 0.6299212598425197
          }
        ],
        "endOfTrackTicks": 38376
      },
      {
        "channel": 2,
        "controlChanges": {
          "6": [
            {
              "number": 6,
              "ticks": 0,
              "time": 0,
              "value": 0.09448818897637795
            }
          ],
          "7": [
            {
              "number": 7,
              "ticks": 0,
              "time": 0,
              "value": 0.7874015748031497
            }
          ],
          "10": [
            {
              "number": 10,
              "ticks": 0,
              "time": 0,
              "value": 0.49606299212598426
            }
          ],
          "91": [
            {
              "number": 91,
              "ticks": 0,
              "time": 0,
              "value": 0
            }
          ],
          "93": [
            {
              "number": 93,
              "ticks": 0,
              "time": 0,
              "value": 0
            }
          ],
          "100": [
            {
              "number": 100,
              "ticks": 0,
              "time": 0,
              "value": 0
            },
            {
              "number": 100,
              "ticks": 0,
              "time": 0,
              "value": 1
            }
          ],
          "101": [
            {
              "number": 101,
              "ticks": 0,
              "time": 0,
              "value": 0
            },
            {
              "number": 101,
              "ticks": 0,
              "time": 0,
              "value": 1
            }
          ],
          "121": [
            {
              "number": 121,
              "ticks": 0,
              "time": 0,
              "value": 0
            }
          ]
        },
        "pitchBends": [],
        "instrument": {
          "family": "piano",
          "number": 0,
          "name": "acoustic grand piano"
        },
        "name": "Tenor\u0000",
        "notes": [
          {
            "duration": 0.4739583333333333,
            "durationTicks": 455,
            "midi": 56,
            "name": "G#3",
            "ticks": 0,
            "time": 0,
            "velocity": 0.6299212598425197
          },
          {
            "duration": 0.47395833333333337,
            "durationTicks": 455,
            "midi": 57,
            "name": "A3",
            "ticks": 480,
            "time": 0.5,
            "velocity": 0.6299212598425197
          },
          {
            "duration": 0.47395833333333326,
            "durationTicks": 455,
            "midi": 58,
            "name": "A#3",
            "ticks": 960,
            "time": 1,
            "velocity": 0.6299212598425197
          },
          {
            "duration": 0.47395833333333326,
            "durationTicks": 455,
            "midi": 60,
            "name": "C4",
            "ticks": 1440,
            "time": 1.5,
            "velocity": 0.6299212598425197
          },
          {
            "duration": 0.4739583333333335,
            "durationTicks": 455,
            "midi": 61,
            "name": "C#4",
            "ticks": 1920,
            "time": 2,
            "velocity": 0.6299212598425197
          },
          {
            "duration": 0.23645833333333321,
            "durationTicks": 227,
            "midi": 60,
            "name": "C4",
            "ticks": 2400,
            "time": 2.5,
            "velocity": 0.6299212598425197
          },
          {
            "duration": 0.23645833333333321,
            "durationTicks": 227,
            "midi": 58,
            "name": "A#3",
            "ticks": 2640,
            "time": 2.75,
            "velocity": 0.6299212598425197
          },
          {
            "duration": 0.4739583333333335,
            "durationTicks": 455,
            "midi": 56,
            "name": "G#3",
            "ticks": 2880,
            "time": 3,
            "velocity": 0.6299212598425197
          },
          {
            "duration": 0.4739583333333335,
            "durationTicks": 455,
            "midi": 56,
            "name": "G#3",
            "ticks": 3360,
            "time": 3.5,
            "velocity": 0.6299212598425197
          },
          {
            "duration": 0.7114583333333337,
            "durationTicks": 683,
            "midi": 60,
            "name": "C4",
            "ticks": 3840,
            "time": 4,
            "velocity": 0.6299212598425197
          },
          {
            "duration": 0.23645833333333321,
            "durationTicks": 227,
            "midi": 58,
            "name": "A#3",
            "ticks": 4560,
            "time": 4.75,
            "velocity": 0.6299212598425197
          },
          {
            "duration": 0.47395833333333304,
            "durationTicks": 455,
            "midi": 63,
            "name": "D#4",
            "ticks": 4800,
            "time": 5,
            "velocity": 0.6299212598425197
          },
          {
            "duration": 0.47395833333333304,
            "durationTicks": 455,
            "midi": 63,
            "name": "D#4",
            "ticks": 5280,
            "time": 5.5,
            "velocity": 0.6299212598425197
          },
          {
            "duration": 0.47395833333333304,
            "durationTicks": 455,
            "midi": 65,
            "name": "F4",
            "ticks": 5760,
            "time": 6,
            "velocity": 0.6299212598425197
          },
          {
            "duration": 0.23645833333333321,
            "durationTicks": 227,
            "midi": 63,
            "name": "D#4",
            "ticks": 6240,
            "time": 6.5,
            "velocity": 0.6299212598425197
          },
          {
            "duration": 0.23645833333333321,
            "durationTicks": 227,
            "midi": 61,
            "name": "C#4",
            "ticks": 6480,
            "time": 6.75,
            "velocity": 0.6299212598425197
          },
          {
            "duration": 0.9489583333333336,
            "durationTicks": 911,
            "midi": 60,
            "name": "C4",
            "ticks": 6720,
            "time": 7,
            "velocity": 0.6299212598425197
          },
          {
            "duration": 0.4739583333333339,
            "durationTicks": 455,
            "midi": 61,
            "name": "C#4",
            "ticks": 7680,
            "time": 8,
            "velocity": 0.6299212598425197
          },
          {
            "duration": 0.4739583333333339,
            "durationTicks": 455,
            "midi": 61,
            "name": "C#4",
            "ticks": 8160,
            "time": 8.5,
            "velocity": 0.6299212598425197
          },
          {
            "duration": 0.4739583333333339,
            "durationTicks": 455,
            "midi": 55,
            "name": "G3",
            "ticks": 8640,
            "time": 9,
            "velocity": 0.6299212598425197
          },
          {
            "duration": 0.23645833333333321,
            "durationTicks": 227,
            "midi": 53,
            "name": "F3",
            "ticks": 9120,
            "time": 9.5,
            "velocity": 0.6299212598425197
          },
          {
            "duration": 0.23645833333333321,
            "durationTicks": 227,
            "midi": 56,
            "name": "G#3",
            "ticks": 9360,
            "time": 9.75,
            "velocity": 0.6299212598425197
          },
          {
            "duration": 0.4739583333333339,
            "durationTicks": 455,
            "midi": 61,
            "name": "C#4",
            "ticks": 9600,
            "time": 10,
            "velocity": 0.6299212598425197
          },
          {
            "duration": 0.23645833333333321,
            "durationTicks": 227,
            "midi": 60,
            "name": "C4",
            "ticks": 10080,
            "time": 10.5,
            "velocity": 0.6299212598425197
          },
          {
            "duration": 0.23645833333333321,
            "durationTicks": 227,
            "midi": 58,
            "name": "A#3",
            "ticks": 10320,
            "time": 10.75,
            "velocity": 0.6299212598425197
          },
          {
            "duration": 0.9489583333333336,
            "durationTicks": 911,
            "midi": 56,
            "name": "G#3",
            "ticks": 10560,
            "time": 11,
            "velocity": 0.6299212598425197
          },
          {
            "duration": 0.23645833333333321,
            "durationTicks": 227,
            "midi": 57,
            "name": "A3",
            "ticks": 11520,
            "time": 12,
            "velocity": 0.6299212598425197
          },
          {
            "duration": 0.23645833333333321,
            "durationTicks": 227,
            "midi": 58,
            "name": "A#3",
            "ticks": 11760,
            "time": 12.25,
            "velocity": 0.6299212598425197
          },
          {
            "duration": 0.23645833333333321,
            "durationTicks": 227,
            "midi": 60,
            "name": "C4",
            "ticks": 12000,
            "time": 12.5,
            "velocity": 0.6299212598425197
          },
          {
            "duration": 0.23645833333333321,
            "durationTicks": 227,
            "midi": 57,
            "name": "A3",
            "ticks": 12240,
            "time": 12.75,
            "velocity": 0.6299212598425197
          },
          {
            "duration": 0.4739583333333339,
            "durationTicks": 455,
            "midi": 58,
            "name": "A#3",
            "ticks": 12480,
            "time": 13,
            "velocity": 0.6299212598425197
          },
          {
            "duration": 0.4739583333333339,
            "durationTicks": 455,
            "midi": 58,
            "name": "A#3",
            "ticks": 12960,
            "time": 13.5,
            "velocity": 0.6299212598425197
          },
          {
            "duration": 0.4739583333333339,
            "durationTicks": 455,
            "midi": 58,
            "name": "A#3",
            "ticks": 13440,
            "time": 14,
            "velocity": 0.6299212598425197
          },
          {
            "duration": 0.4739583333333339,
            "durationTicks": 455,
            "midi": 63,
            "name": "D#4",
            "ticks": 13920,
            "time": 14.5,
            "velocity": 0.6299212598425197
          },
          {
            "duration": 0.4739583333333339,
            "durationTicks": 455,
            "midi": 63,
            "name": "D#4",
            "ticks": 14400,
            "time": 15,
            "velocity": 0.6299212598425197
          },
          {
            "duration": 0.4739583333333339,
            "durationTicks": 455,
            "midi": 63,
            "name": "D#4",
            "ticks": 14880,
            "time": 15.5,
            "velocity": 0.6299212598425197
          },
          {
            "duration": 0.47395833333333215,
            "durationTicks": 455,
            "midi": 61,
            "name": "C#4",
            "ticks": 15360,
            "time": 16,
            "velocity": 0.6299212598425197
          },
          {
            "duration": 0.47395833333333215,
            "durationTicks": 455,
            "midi": 61,
            "name": "C#4",
            "ticks": 15840,
            "time": 16.5,
            "velocity": 0.6299212598425197
          },
          {
            "duration": 0.47395833333333215,
            "durationTicks": 455,
            "midi": 65,
            "name": "F4",
            "ticks": 16320,
            "time": 17,
            "velocity": 0.6299212598425197
          },
          {
            "duration": 0.47395833333333215,
            "durationTicks": 455,
            "midi": 65,
            "name": "F4",
            "ticks": 16800,
            "time": 17.5,
            "velocity": 0.6299212598425197
          },
          {
            "duration": 0.47395833333333215,
            "durationTicks": 455,
            "midi": 66,
            "name": "F#4",
            "ticks": 17280,
            "time": 18,
            "velocity": 0.6299212598425197
          },
          {
            "duration": 0.236458333333335,
            "durationTicks": 227,
            "midi": 65,
            "name": "F4",
            "ticks": 17760,
            "time": 18.5,
            "velocity": 0.6299212598425197
          },
          {
            "duration": 0.236458333333335,
            "durationTicks": 227,
            "midi": 63,
            "name": "D#4",
            "ticks": 18000,
            "time": 18.75,
            "velocity": 0.6299212598425197
          },
          {
            "duration": 0.9489583333333336,
            "durationTicks": 911,
            "midi": 61,
            "name": "C#4",
            "ticks": 18240,
            "time": 19,
            "velocity": 0.6299212598425197
          },
          {
            "duration": 0.47395833333333215,
            "durationTicks": 455,
            "midi": 60,
            "name": "C4",
            "ticks": 19200,
            "time": 20,
            "velocity": 0.6299212598425197
          },
          {
            "duration": 0.47395833333333215,
            "durationTicks": 455,
            "midi": 60,
            "name": "C4",
            "ticks": 19680,
            "time": 20.5,
            "velocity": 0.6299212598425197
          },
          {
            "duration": 0.47395833333333215,
            "durationTicks": 455,
            "midi": 58,
            "name": "A#3",
            "ticks": 20160,
            "time": 21,
            "velocity": 0.6299212598425197
          },
          {
            "duration": 0.47395833333333215,
            "durationTicks": 455,
            "midi": 60,
            "name": "C4",
            "ticks": 20640,
            "time": 21.5,
            "velocity": 0.6299212598425197
          },
          {
            "duration": 0.47395833333333215,
            "durationTicks": 455,
            "midi": 61,
            "name": "C#4",
            "ticks": 21120,
            "time": 22,
            "velocity": 0.6299212598425197
          },
          {
            "duration": 0.236458333333335,
            "durationTicks": 227,
            "midi": 60,
            "name": "C4",
            "ticks": 21600,
            "time": 22.5,
            "velocity": 0.6299212598425197
          },
          {
            "duration": 0.236458333333335,
            "durationTicks": 227,
            "midi": 58,
            "name": "A#3",
            "ticks": 21840,
            "time": 22.75,
            "velocity": 0.6299212598425197
          },
          {
            "duration": 0.9489583333333336,
            "durationTicks": 911,
            "midi": 56,
            "name": "G#3",
            "ticks": 22080,
            "time": 23,
            "velocity": 0.6299212598425197
          },
          {
            "duration": 0.47395833333333215,
            "durationTicks": 455,
            "midi": 60,
            "name": "C4",
            "ticks": 23040,
            "time": 24,
            "velocity": 0.6299212598425197
          },
          {
            "duration": 0.47395833333333215,
            "durationTicks": 455,
            "midi": 60,
            "name": "C4",
            "ticks": 23520,
            "time": 24.5,
            "velocity": 0.6299212598425197
          },
          {
            "duration": 0.47395833333333215,
            "durationTicks": 455,
            "midi": 60,
            "name": "C4",
            "ticks": 24000,
            "time": 25,
            "velocity": 0.6299212598425197
          },
          {
            "duration": 0.47395833333333215,
            "durationTicks": 455,
            "midi": 60,
            "name": "C4",
            "ticks": 24480,
            "time": 25.5,
            "velocity": 0.6299212598425197
          },
          {
            "duration": 0.47395833333333215,
            "durationTicks": 455,
            "midi": 60,
            "name": "C4",
            "ticks": 24960,
            "time": 26,
            "velocity": 0.6299212598425197
          },
          {
            "duration": 0.47395833333333215,
            "durationTicks": 455,
            "midi": 59,
            "name": "B3",
            "ticks": 25440,
            "time": 26.5,
            "velocity": 0.6299212598425197
          },
          {
            "duration": 0.47395833333333215,
            "durationTicks": 455,
            "midi": 60,
            "name": "C4",
            "ticks": 25920,
            "time": 27,
            "velocity": 0.6299212598425197
          },
          {
            "duration": 0.47395833333333215,
            "durationTicks": 455,
            "midi": 55,
            "name": "G3",
            "ticks": 26400,
            "time": 27.5,
            "velocity": 0.6299212598425197
          },
          {
            "duration": 0.47395833333333215,
            "durationTicks": 455,
            "midi": 57,
            "name": "A3",
            "ticks": 26880,
            "time": 28,
            "velocity": 0.6299212598425197
          },
          {
            "duration": 0.47395833333333215,
            "durationTicks": 455,
            "midi": 57,
            "name": "A3",
            "ticks": 27360,
            "time": 28.5,
            "velocity": 0.6299212598425197
          },
          {
            "duration": 0.47395833333333215,
            "durationTicks": 455,
            "midi": 58,
            "name": "A#3",
            "ticks": 27840,
            "time": 29,
            "velocity": 0.6299212598425197
          },
          {
            "duration": 0.47395833333333215,
            "durationTicks": 455,
            "midi": 51,
            "name": "D#3",
            "ticks": 28320,
            "time": 29.5,
            "velocity": 0.6299212598425197
          },
          {
            "duration": 0.7114583333333329,
            "durationTicks": 683,
            "midi": 63,
            "name": "D#4",
            "ticks": 28800,
            "time": 30,
            "velocity": 0.6299212598425197
          },
          {
            "duration": 0.236458333333335,
            "durationTicks": 227,
            "midi": 61,
            "name": "C#4",
            "ticks": 29520,
            "time": 30.75,
            "velocity": 0.6299212598425197
          },
          {
            "duration": 0.47395833333333215,
            "durationTicks": 455,
            "midi": 60,
            "name": "C4",
            "ticks": 29760,
            "time": 31,
            "velocity": 0.6299212598425197
          },
          {
            "duration": 0.47395833333333215,
            "durationTicks": 455,
            "midi": 60,
            "name": "C4",
            "ticks": 30240,
            "time": 31.5,
            "velocity": 0.6299212598425197
          },
          {
            "duration": 0.4739583333333357,
            "durationTicks": 455,
            "midi": 61,
            "name": "C#4",
            "ticks": 30720,
            "time": 32,
            "velocity": 0.6299212598425197
          },
          {
            "duration": 0.4739583333333357,
            "durationTicks": 455,
            "midi": 61,
            "name": "C#4",
            "ticks": 31200,
            "time": 32.5,
            "velocity": 0.6299212598425197
          },
          {
            "duration": 0.4739583333333357,
            "durationTicks": 455,
            "midi": 65,
            "name": "F4",
            "ticks": 31680,
            "time": 33,
            "velocity": 0.6299212598425197
          },
          {
            "duration": 0.4739583333333357,
            "durationTicks": 455,
            "midi": 65,
            "name": "F4",
            "ticks": 32160,
            "time": 33.5,
            "velocity": 0.6299212598425197
          },
          {
            "duration": 0.4739583333333357,
            "durationTicks": 455,
            "midi": 63,
            "name": "D#4",
            "ticks": 32640,
            "time": 34,
            "velocity": 0.6299212598425197
          },
          {
            "duration": 0.4739583333333357,
            "durationTicks": 455,
            "midi": 63,
            "name": "D#4",
            "ticks": 33120,
            "time": 34.5,
            "velocity": 0.6299212598425197
          },
          {
            "duration": 0.4739583333333357,
            "durationTicks": 455,
            "midi": 67,
            "name": "G4",
            "ticks": 33600,
            "time": 35,
            "velocity": 0.6299212598425197
          },
          {
            "duration": 0.4739583333333357,
            "durationTicks": 455,
            "midi": 67,
            "name": "G4",
            "ticks": 34080,
            "time": 35.5,
            "velocity": 0.6299212598425197
          },
          {
            "duration": 0.4739583333333357,
            "durationTicks": 455,
            "midi": 65,
            "name": "F4",
            "ticks": 34560,
            "time": 36,
            "velocity": 0.6299212598425197
          },
          {
            "duration": 0.4739583333333357,
            "durationTicks": 455,
            "midi": 65,
            "name": "F4",
            "ticks": 35040,
            "time": 36.5,
            "velocity": 0.6299212598425197
          },
          {
            "duration": 0.4739583333333357,
            "durationTicks": 455,
            "midi": 60,
            "name": "C4",
            "ticks": 35520,
            "time": 37,
            "velocity": 0.6299212598425197
          },
          {
            "duration": 0.4739583333333357,
            "durationTicks": 455,
            "midi": 53,
            "name": "F3",
            "ticks": 36000,
            "time": 37.5,
            "velocity": 0.6299212598425197
          },
          {
            "duration": 0.4739583333333357,
            "durationTicks": 455,
            "midi": 60,
            "name": "C4",
            "ticks": 36480,
            "time": 38,
            "velocity": 0.6299212598425197
          },
          {
            "duration": 0.4739583333333357,
            "durationTicks": 455,
            "midi": 60,
            "name": "C4",
            "ticks": 36960,
            "time": 38.5,
            "velocity": 0.6299212598425197
          },
          {
            "duration": 0.4739583333333357,
            "durationTicks": 455,
            "midi": 60,
            "name": "C4",
            "ticks": 37440,
            "time": 39,
            "velocity": 0.6299212598425197
          },
          {
            "duration": 0.4739583333333357,
            "durationTicks": 455,
            "midi": 60,
            "name": "C4",
            "ticks": 37920,
            "time": 39.5,
            "velocity": 0.6299212598425197
          }
        ],
        "endOfTrackTicks": 38376
      },
      {
        "channel": 3,
        "controlChanges": {
          "6": [
            {
              "number": 6,
              "ticks": 0,
              "time": 0,
              "value": 0.09448818897637795
            }
          ],
          "7": [
            {
              "number": 7,
              "ticks": 0,
              "time": 0,
              "value": 0.7874015748031497
            }
          ],
          "10": [
            {
              "number": 10,
              "ticks": 0,
              "time": 0,
              "value": 0.49606299212598426
            }
          ],
          "91": [
            {
              "number": 91,
              "ticks": 0,
              "time": 0,
              "value": 0
            }
          ],
          "93": [
            {
              "number": 93,
              "ticks": 0,
              "time": 0,
              "value": 0
            }
          ],
          "100": [
            {
              "number": 100,
              "ticks": 0,
              "time": 0,
              "value": 0
            },
            {
              "number": 100,
              "ticks": 0,
              "time": 0,
              "value": 1
            }
          ],
          "101": [
            {
              "number": 101,
              "ticks": 0,
              "time": 0,
              "value": 0
            },
            {
              "number": 101,
              "ticks": 0,
              "time": 0,
              "value": 1
            }
          ],
          "121": [
            {
              "number": 121,
              "ticks": 0,
              "time": 0,
              "value": 0
            }
          ]
        },
        "pitchBends": [],
        "instrument": {
          "family": "piano",
          "number": 0,
          "name": "acoustic grand piano"
        },
        "name": "Bass\u0000",
        "notes": [
          {
            "duration": 0.4739583333333333,
            "durationTicks": 455,
            "midi": 53,
            "name": "F3",
            "ticks": 0,
            "time": 0,
            "velocity": 0.6299212598425197
          },
          {
            "duration": 0.47395833333333337,
            "durationTicks": 455,
            "midi": 51,
            "name": "D#3",
            "ticks": 480,
            "time": 0.5,
            "velocity": 0.6299212598425197
          },
          {
            "duration": 0.47395833333333326,
            "durationTicks": 455,
            "midi": 49,
            "name": "C#3",
            "ticks": 960,
            "time": 1,
            "velocity": 0.6299212598425197
          },
          {
            "duration": 0.47395833333333326,
            "durationTicks": 455,
            "midi": 48,
            "name": "C3",
            "ticks": 1440,
            "time": 1.5,
            "velocity": 0.6299212598425197
          },
          {
            "duration": 0.4739583333333335,
            "durationTicks": 455,
            "midi": 46,
            "name": "A#2",
            "ticks": 1920,
            "time": 2,
            "velocity": 0.6299212598425197
          },
          {
            "duration": 0.4739583333333335,
            "durationTicks": 455,
            "midi": 48,
            "name": "C3",
            "ticks": 2400,
            "time": 2.5,
            "velocity": 0.6299212598425197
          },
          {
            "duration": 0.4739583333333335,
            "durationTicks": 455,
            "midi": 41,
            "name": "F2",
            "ticks": 2880,
            "time": 3,
            "velocity": 0.6299212598425197
          },
          {
            "duration": 0.4739583333333335,
            "durationTicks": 455,
            "midi": 41,
            "name": "F2",
            "ticks": 3360,
            "time": 3.5,
            "velocity": 0.6299212598425197
          },
          {
            "duration": 0.47395833333333304,
            "durationTicks": 455,
            "midi": 53,
            "name": "F3",
            "ticks": 3840,
            "time": 4,
            "velocity": 0.6299212598425197
          },
          {
            "duration": 0.23645833333333321,
            "durationTicks": 227,
            "midi": 51,
            "name": "D#3",
            "ticks": 4320,
            "time": 4.5,
            "velocity": 0.6299212598425197
          },
          {
            "duration": 0.23645833333333321,
            "durationTicks": 227,
            "midi": 49,
            "name": "C#3",
            "ticks": 4560,
            "time": 4.75,
            "velocity": 0.6299212598425197
          },
          {
            "duration": 0.23645833333333321,
            "durationTicks": 227,
            "midi": 48,
            "name": "C3",
            "ticks": 4800,
            "time": 5,
            "velocity": 0.6299212598425197
          },
          {
            "duration": 0.23645833333333321,
            "durationTicks": 227,
            "midi": 46,
            "name": "A#2",
            "ticks": 5040,
            "time": 5.25,
            "velocity": 0.6299212598425197
          },
          {
            "duration": 0.47395833333333304,
            "durationTicks": 455,
            "midi": 44,
            "name": "G#2",
            "ticks": 5280,
            "time": 5.5,
            "velocity": 0.6299212598425197
          },
          {
            "duration": 0.47395833333333304,
            "durationTicks": 455,
            "midi": 49,
            "name": "C#3",
            "ticks": 5760,
            "time": 6,
            "velocity": 0.6299212598425197
          },
          {
            "duration": 0.47395833333333304,
            "durationTicks": 455,
            "midi": 51,
            "name": "D#3",
            "ticks": 6240,
            "time": 6.5,
            "velocity": 0.6299212598425197
          },
          {
            "duration": 0.9489583333333336,
            "durationTicks": 911,
            "midi": 44,
            "name": "G#2",
            "ticks": 6720,
            "time": 7,
            "velocity": 0.6299212598425197
          },
          {
            "duration": 0.4739583333333339,
            "durationTicks": 455,
            "midi": 49,
            "name": "C#3",
            "ticks": 7680,
            "time": 8,
            "velocity": 0.6299212598425197
          },
          {
            "duration": 0.23645833333333321,
            "durationTicks": 227,
            "midi": 48,
            "name": "C3",
            "ticks": 8160,
            "time": 8.5,
            "velocity": 0.6299212598425197
          },
          {
            "duration": 0.23645833333333321,
            "durationTicks": 227,
            "midi": 46,
            "name": "A#2",
            "ticks": 8400,
            "time": 8.75,
            "velocity": 0.6299212598425197
          },
          {
            "duration": 0.4739583333333339,
            "durationTicks": 455,
            "midi": 48,
            "name": "C3",
            "ticks": 8640,
            "time": 9,
            "velocity": 0.6299212598425197
          },
          {
            "duration": 0.4739583333333339,
            "durationTicks": 455,
            "midi": 49,
            "name": "C#3",
            "ticks": 9120,
            "time": 9.5,
            "velocity": 0.6299212598425197
          },
          {
            "duration": 0.4739583333333339,
            "durationTicks": 455,
            "midi": 46,
            "name": "A#2",
            "ticks": 9600,
            "time": 10,
            "velocity": 0.6299212598425197
          },
          {
            "duration": 0.4739583333333339,
            "durationTicks": 455,
            "midi": 48,
            "name": "C3",
            "ticks": 10080,
            "time": 10.5,
            "velocity": 0.6299212598425197
          },
          {
            "duration": 0.9489583333333336,
            "durationTicks": 911,
            "midi": 41,
            "name": "F2",
            "ticks": 10560,
            "time": 11,
            "velocity": 0.6299212598425197
          },
          {
            "duration": 0.23645833333333321,
            "durationTicks": 227,
            "midi": 53,
            "name": "F3",
            "ticks": 11520,
            "time": 12,
            "velocity": 0.6299212598425197
          },
          {
            "duration": 0.23645833333333321,
            "durationTicks": 227,
            "midi": 55,
            "name": "G3",
            "ticks": 11760,
            "time": 12.25,
            "velocity": 0.6299212598425197
          },
          {
            "duration": 0.23645833333333321,
            "durationTicks": 227,
            "midi": 57,
            "name": "A3",
            "ticks": 12000,
            "time": 12.5,
            "velocity": 0.6299212598425197
          },
          {
            "duration": 0.23645833333333321,
            "durationTicks": 227,
            "midi": 53,
            "name": "F3",
            "ticks": 12240,
            "time": 12.75,
            "velocity": 0.6299212598425197
          },
          {
            "duration": 0.23645833333333321,
            "durationTicks": 227,
            "midi": 46,
            "name": "A#2",
            "ticks": 12480,
            "time": 13,
            "velocity": 0.6299212598425197
          },
          {
            "duration": 0.23645833333333321,
            "durationTicks": 227,
            "midi": 48,
            "name": "C3",
            "ticks": 12720,
            "time": 13.25,
            "velocity": 0.6299212598425197
          },
          {
            "duration": 0.23645833333333321,
            "durationTicks": 227,
            "midi": 49,
            "name": "C#3",
            "ticks": 12960,
            "time": 13.5,
            "velocity": 0.6299212598425197
          },
          {
            "duration": 0.23645833333333321,
            "durationTicks": 227,
            "midi": 46,
            "name": "A#2",
            "ticks": 13200,
            "time": 13.75,
            "velocity": 0.6299212598425197
          },
          {
            "duration": 0.23645833333333321,
            "durationTicks": 227,
            "midi": 51,
            "name": "D#3",
            "ticks": 13440,
            "time": 14,
            "velocity": 0.6299212598425197
          },
          {
            "duration": 0.23645833333333321,
            "durationTicks": 227,
            "midi": 53,
            "name": "F3",
            "ticks": 13680,
            "time": 14.25,
            "velocity": 0.6299212598425197
          },
          {
            "duration": 0.23645833333333321,
            "durationTicks": 227,
            "midi": 55,
            "name": "G3",
            "ticks": 13920,
            "time": 14.5,
            "velocity": 0.6299212598425197
          },
          {
            "duration": 0.23645833333333321,
            "durationTicks": 227,
            "midi": 51,
            "name": "D#3",
            "ticks": 14160,
            "time": 14.75,
            "velocity": 0.6299212598425197
          },
          {
            "duration": 0.4739583333333339,
            "durationTicks": 455,
            "midi": 56,
            "name": "G#3",
            "ticks": 14400,
            "time": 15,
            "velocity": 0.6299212598425197
          },
          {
            "duration": 0.4739583333333339,
            "durationTicks": 455,
            "midi": 56,
            "name": "G#3",
            "ticks": 14880,
            "time": 15.5,
            "velocity": 0.6299212598425197
          },
          {
            "duration": 0.236458333333335,
            "durationTicks": 227,
            "midi": 49,
            "name": "C#3",
            "ticks": 15360,
            "time": 16,
            "velocity": 0.6299212598425197
          },
          {
            "duration": 0.236458333333335,
            "durationTicks": 227,
            "midi": 51,
            "name": "D#3",
            "ticks": 15600,
            "time": 16.25,
            "velocity": 0.6299212598425197
          },
          {
            "duration": 0.236458333333335,
            "durationTicks": 227,
            "midi": 53,
            "name": "F3",
            "ticks": 15840,
            "time": 16.5,
            "velocity": 0.6299212598425197
          },
          {
            "duration": 0.236458333333335,
            "durationTicks": 227,
            "midi": 49,
            "name": "C#3",
            "ticks": 16080,
            "time": 16.75,
            "velocity": 0.6299212598425197
          },
          {
            "duration": 0.236458333333335,
            "durationTicks": 227,
            "midi": 46,
            "name": "A#2",
            "ticks": 16320,
            "time": 17,
            "velocity": 0.6299212598425197
          },
          {
            "duration": 0.236458333333335,
            "durationTicks": 227,
            "midi": 48,
            "name": "C3",
            "ticks": 16560,
            "time": 17.25,
            "velocity": 0.6299212598425197
          },
          {
            "duration": 0.236458333333335,
            "durationTicks": 227,
            "midi": 49,
            "name": "C#3",
            "ticks": 16800,
            "time": 17.5,
            "velocity": 0.6299212598425197
          },
          {
            "duration": 0.236458333333335,
            "durationTicks": 227,
            "midi": 46,
            "name": "A#2",
            "ticks": 17040,
            "time": 17.75,
            "velocity": 0.6299212598425197
          },
          {
            "duration": 0.236458333333335,
            "durationTicks": 227,
            "midi": 51,
            "name": "D#3",
            "ticks": 17280,
            "time": 18,
            "velocity": 0.6299212598425197
          },
          {
            "duration": 0.236458333333335,
            "durationTicks": 227,
            "midi": 48,
            "name": "C3",
            "ticks": 17520,
            "time": 18.25,
            "velocity": 0.6299212598425197
          },
          {
            "duration": 0.47395833333333215,
            "durationTicks": 455,
            "midi": 53,
            "name": "F3",
            "ticks": 17760,
            "time": 18.5,
            "velocity": 0.6299212598425197
          },
          {
            "duration": 0.9489583333333336,
            "durationTicks": 911,
            "midi": 46,
            "name": "A#2",
            "ticks": 18240,
            "time": 19,
            "velocity": 0.6299212598425197
          },
          {
            "duration": 0.47395833333333215,
            "durationTicks": 455,
            "midi": 58,
            "name": "A#3",
            "ticks": 19200,
            "time": 20,
            "velocity": 0.6299212598425197
          },
          {
            "duration": 0.47395833333333215,
            "durationTicks": 455,
            "midi": 56,
            "name": "G#3",
            "ticks": 19680,
            "time": 20.5,
            "velocity": 0.6299212598425197
          },
          {
            "duration": 0.47395833333333215,
            "durationTicks": 455,
            "midi": 55,
            "name": "G3",
            "ticks": 20160,
            "time": 21,
            "velocity": 0.6299212598425197
          },
          {
            "duration": 0.47395833333333215,
            "durationTicks": 455,
            "midi": 53,
            "name": "F3",
            "ticks": 20640,
            "time": 21.5,
            "velocity": 0.6299212598425197
          },
          {
            "duration": 0.47395833333333215,
            "durationTicks": 455,
            "midi": 46,
            "name": "A#2",
            "ticks": 21120,
            "time": 22,
            "velocity": 0.6299212598425197
          },
          {
            "duration": 0.47395833333333215,
            "durationTicks": 455,
            "midi": 48,
            "name": "C3",
            "ticks": 21600,
            "time": 22.5,
            "velocity": 0.6299212598425197
          },
          {
            "duration": 0.9489583333333336,
            "durationTicks": 911,
            "midi": 41,
            "name": "F2",
            "ticks": 22080,
            "time": 23,
            "velocity": 0.6299212598425197
          },
          {
            "duration": 0.236458333333335,
            "durationTicks": 227,
            "midi": 41,
            "name": "F2",
            "ticks": 23040,
            "time": 24,
            "velocity": 0.6299212598425197
          },
          {
            "duration": 0.236458333333335,
            "durationTicks": 227,
            "midi": 43,
            "name": "G2",
            "ticks": 23280,
            "time": 24.25,
            "velocity": 0.6299212598425197
          },
          {
            "duration": 0.236458333333335,
            "durationTicks": 227,
            "midi": 44,
            "name": "G#2",
            "ticks": 23520,
            "time": 24.5,
            "velocity": 0.6299212598425197
          },
          {
            "duration": 0.236458333333335,
            "durationTicks": 227,
            "midi": 46,
            "name": "A#2",
            "ticks": 23760,
            "time": 24.75,
            "velocity": 0.6299212598425197
          },
          {
            "duration": 0.236458333333335,
            "durationTicks": 227,
            "midi": 48,
            "name": "C3",
            "ticks": 24000,
            "time": 25,
            "velocity": 0.6299212598425197
          },
          {
            "duration": 0.236458333333335,
            "durationTicks": 227,
            "midi": 50,
            "name": "D3",
            "ticks": 24240,
            "time": 25.25,
            "velocity": 0.6299212598425197
          },
          {
            "duration": 0.236458333333335,
            "durationTicks": 227,
            "midi": 51,
            "name": "D#3",
            "ticks": 24480,
            "time": 25.5,
            "velocity": 0.6299212598425197
          },
          {
            "duration": 0.236458333333335,
            "durationTicks": 227,
            "midi": 53,
            "name": "F3",
            "ticks": 24720,
            "time": 25.75,
            "velocity": 0.6299212598425197
          },
          {
            "duration": 0.47395833333333215,
            "durationTicks": 455,
            "midi": 55,
            "name": "G3",
            "ticks": 24960,
            "time": 26,
            "velocity": 0.6299212598425197
          },
          {
            "duration": 0.47395833333333215,
            "durationTicks": 455,
            "midi": 43,
            "name": "G2",
            "ticks": 25440,
            "time": 26.5,
            "velocity": 0.6299212598425197
          },
          {
            "duration": 0.47395833333333215,
            "durationTicks": 455,
            "midi": 48,
            "name": "C3",
            "ticks": 25920,
            "time": 27,
            "velocity": 0.6299212598425197
          },
          {
            "duration": 0.47395833333333215,
            "durationTicks": 455,
            "midi": 48,
            "name": "C3",
            "ticks": 26400,
            "time": 27.5,
            "velocity": 0.6299212598425197
          },
          {
            "duration": 0.236458333333335,
            "durationTicks": 227,
            "midi": 53,
            "name": "F3",
            "ticks": 26880,
            "time": 28,
            "velocity": 0.6299212598425197
          },
          {
            "duration": 0.236458333333335,
            "durationTicks": 227,
            "midi": 51,
            "name": "D#3",
            "ticks": 27120,
            "time": 28.25,
            "velocity": 0.6299212598425197
          },
          {
            "duration": 0.236458333333335,
            "durationTicks": 227,
            "midi": 49,
            "name": "C#3",
            "ticks": 27360,
            "time": 28.5,
            "velocity": 0.6299212598425197
          },
          {
            "duration": 0.236458333333335,
            "durationTicks": 227,
            "midi": 48,
            "name": "C3",
            "ticks": 27600,
            "time": 28.75,
            "velocity": 0.6299212598425197
          },
          {
            "duration": 0.47395833333333215,
            "durationTicks": 455,
            "midi": 46,
            "name": "A#2",
            "ticks": 27840,
            "time": 29,
            "velocity": 0.6299212598425197
          },
          {
            "duration": 0.236458333333335,
            "durationTicks": 227,
            "midi": 48,
            "name": "C3",
            "ticks": 28320,
            "time": 29.5,
            "velocity": 0.6299212598425197
          },
          {
            "duration": 0.236458333333335,
            "durationTicks": 227,
            "midi": 49,
            "name": "C#3",
            "ticks": 28560,
            "time": 29.75,
            "velocity": 0.6299212598425197
          },
          {
            "duration": 0.47395833333333215,
            "durationTicks": 455,
            "midi": 51,
            "name": "D#3",
            "ticks": 28800,
            "time": 30,
            "velocity": 0.6299212598425197
          },
          {
            "duration": 0.47395833333333215,
            "durationTicks": 455,
            "midi": 51,
            "name": "D#3",
            "ticks": 29280,
            "time": 30.5,
            "velocity": 0.6299212598425197
          },
          {
            "duration": 0.47395833333333215,
            "durationTicks": 455,
            "midi": 44,
            "name": "G#2",
            "ticks": 29760,
            "time": 31,
            "velocity": 0.6299212598425197
          },
          {
            "duration": 0.47395833333333215,
            "durationTicks": 455,
            "midi": 44,
            "name": "G#2",
            "ticks": 30240,
            "time": 31.5,
            "velocity": 0.6299212598425197
          },
          {
            "duration": 0.23645833333333144,
            "durationTicks": 227,
            "midi": 49,
            "name": "C#3",
            "ticks": 30720,
            "time": 32,
            "velocity": 0.6299212598425197
          },
          {
            "duration": 0.23645833333333144,
            "durationTicks": 227,
            "midi": 51,
            "name": "D#3",
            "ticks": 30960,
            "time": 32.25,
            "velocity": 0.6299212598425197
          },
          {
            "duration": 0.23645833333333144,
            "durationTicks": 227,
            "midi": 49,
            "name": "C#3",
            "ticks": 31200,
            "time": 32.5,
            "velocity": 0.6299212598425197
          },
          {
            "duration": 0.23645833333333144,
            "durationTicks": 227,
            "midi": 48,
            "name": "C3",
            "ticks": 31440,
            "time": 32.75,
            "velocity": 0.6299212598425197
          },
          {
            "duration": 0.23645833333333144,
            "durationTicks": 227,
            "midi": 46,
            "name": "A#2",
            "ticks": 31680,
            "time": 33,
            "velocity": 0.6299212598425197
          },
          {
            "duration": 0.23645833333333144,
            "durationTicks": 227,
            "midi": 48,
            "name": "C3",
            "ticks": 31920,
            "time": 33.25,
            "velocity": 0.6299212598425197
          },
          {
            "duration": 0.23645833333333144,
            "durationTicks": 227,
            "midi": 49,
            "name": "C#3",
            "ticks": 32160,
            "time": 33.5,
            "velocity": 0.6299212598425197
          },
          {
            "duration": 0.23645833333333144,
            "durationTicks": 227,
            "midi": 46,
            "name": "A#2",
            "ticks": 32400,
            "time": 33.75,
            "velocity": 0.6299212598425197
          },
          {
            "duration": 0.23645833333333144,
            "durationTicks": 227,
            "midi": 51,
            "name": "D#3",
            "ticks": 32640,
            "time": 34,
            "velocity": 0.6299212598425197
          },
          {
            "duration": 0.23645833333333144,
            "durationTicks": 227,
            "midi": 53,
            "name": "F3",
            "ticks": 32880,
            "time": 34.25,
            "velocity": 0.6299212598425197
          },
          {
            "duration": 0.23645833333333144,
            "durationTicks": 227,
            "midi": 51,
            "name": "D#3",
            "ticks": 33120,
            "time": 34.5,
            "velocity": 0.6299212598425197
          },
          {
            "duration": 0.23645833333333144,
            "durationTicks": 227,
            "midi": 49,
            "name": "C#3",
            "ticks": 33360,
            "time": 34.75,
            "velocity": 0.6299212598425197
          },
          {
            "duration": 0.23645833333333144,
            "durationTicks": 227,
            "midi": 48,
            "name": "C3",
            "ticks": 33600,
            "time": 35,
            "velocity": 0.6299212598425197
          },
          {
            "duration": 0.23645833333333144,
            "durationTicks": 227,
            "midi": 49,
            "name": "C#3",
            "ticks": 33840,
            "time": 35.25,
            "velocity": 0.6299212598425197
          },
          {
            "duration": 0.23645833333333144,
            "durationTicks": 227,
            "midi": 51,
            "name": "D#3",
            "ticks": 34080,
            "time": 35.5,
            "velocity": 0.6299212598425197
          },
          {
            "duration": 0.23645833333333144,
            "durationTicks": 227,
            "midi": 48,
            "name": "C3",
            "ticks": 34320,
            "time": 35.75,
            "velocity": 0.6299212598425197
          },
          {
            "duration": 0.23645833333333144,
            "durationTicks": 227,
            "midi": 53,
            "name": "F3",
            "ticks": 34560,
            "time": 36,
            "velocity": 0.6299212598425197
          },
          {
            "duration": 0.23645833333333144,
            "durationTicks": 227,
            "midi": 52,
            "name": "E3",
            "ticks": 34800,
            "time": 36.25,
            "velocity": 0.6299212598425197
          },
          {
            "duration": 0.23645833333333144,
            "durationTicks": 227,
            "midi": 53,
            "name": "F3",
            "ticks": 35040,
            "time": 36.5,
            "velocity": 0.6299212598425197
          },
          {
            "duration": 0.23645833333333144,
            "durationTicks": 227,
            "midi": 55,
            "name": "G3",
            "ticks": 35280,
            "time": 36.75,
            "velocity": 0.6299212598425197
          },
          {
            "duration": 0.23645833333333144,
            "durationTicks": 227,
            "midi": 56,
            "name": "G#3",
            "ticks": 35520,
            "time": 37,
            "velocity": 0.6299212598425197
          },
          {
            "duration": 0.23645833333333144,
            "durationTicks": 227,
            "midi": 55,
            "name": "G3",
            "ticks": 35760,
            "time": 37.25,
            "velocity": 0.6299212598425197
          },
          {
            "duration": 0.23645833333333144,
            "durationTicks": 227,
            "midi": 56,
            "name": "G#3",
            "ticks": 36000,
            "time": 37.5,
            "velocity": 0.6299212598425197
          },
          {
            "duration": 0.23645833333333144,
            "durationTicks": 227,
            "midi": 58,
            "name": "A#3",
            "ticks": 36240,
            "time": 37.75,
            "velocity": 0.6299212598425197
          },
          {
            "duration": 0.4739583333333357,
            "durationTicks": 455,
            "midi": 60,
            "name": "C4",
            "ticks": 36480,
            "time": 38,
            "velocity": 0.6299212598425197
          },
          {
            "duration": 0.4739583333333357,
            "durationTicks": 455,
            "midi": 48,
            "name": "C3",
            "ticks": 36960,
            "time": 38.5,
            "velocity": 0.6299212598425197
          },
          {
            "duration": 0.4739583333333357,
            "durationTicks": 455,
            "midi": 53,
            "name": "F3",
            "ticks": 37440,
            "time": 39,
            "velocity": 0.6299212598425197
          },
          {
            "duration": 0.4739583333333357,
            "durationTicks": 455,
            "midi": 53,
            "name": "F3",
            "ticks": 37920,
            "time": 39.5,
            "velocity": 0.6299212598425197
          }
        ],
        "endOfTrackTicks": 38376
      }
    ]
  }